<?xml version="1.0" encoding="UTF-8"?><svg id="a" xmlns="http://www.w3.org/2000/svg" viewBox="0 0 783.7 750.16"><defs><style>.b{fill:#fce1dc;}.c{fill:#e9f4f1;}.d{fill:#fad2cf;}.e{stroke:#ea553c;}.e,.f,.g{fill:none;stroke-miterlimit:10;}.e,.g{stroke-width:9px;}.f{stroke:#cb63a2;stroke-width:13px;}.g{stroke:#1d1d1b;}.h{fill:#b5b5b5;}</style></defs><path class="c" d="M751.41,462.19c-33.05,75.27-129.08,203.53-190.58,239.12-66.25,38.34-224.42,67.47-299.44,34.55-45.61-20.02-113.42-124.04-150.28-166.84-21.25-24.67-70.74-68.55-83.29-101.12C2.5,402.09-9.96,249.13,9.59,187.52,27.31,131.68,90.01,30.98,135.61,15.01c46.17-16.17,149.86,25.67,199.04,23.92,49.93-1.79,143.97-43.97,194.48-38.44,48.06,5.27,151.91,32.22,189.12,77.62,33.54,40.91,59.89,161.14,64.93,217.22,4,44.62-15.77,130.36-31.8,166.85h.03Z"/><g><path class="h" d="M253.42,477.26s0,26.95-28.86,40.44c-43.29,20.22-72.16,6.74-72.16,6.74-21.65-6.74-21.65-20.88-21.65-26.95,0-20.22,7.21-26.95,7.21-26.95,0,0-23.27-1.31-28.86-6.74-7.91-7.68-21.65-20.22-21.65-40.44,0-13.48,7.21-26.95,21.65-33.7,8.23-3.85,36.08-6.74,36.08-6.74l64.94-215.67,36.08,6.74,7.21,303.28h0Z"/><path class="h" d="M518.79,479.06s0,26.95,26.95,40.44c40.44,20.22,67.39,6.74,67.39,6.74,20.22-6.74,20.22-20.88,20.22-26.95,0-20.22-6.74-26.95-6.74-26.95,0,0,21.74-1.31,26.95-6.74,7.39-7.68,20.22-20.22,20.22-40.44,0-13.48-6.74-26.95-20.22-33.7-7.68-3.85-33.7-6.74-33.7-6.74l-60.66-215.67-33.7,6.74-6.74,303.28h.02Z"/><path class="b" d="M202.03,195.99s-2.72,136.56,0,181.97c3.56,59.46,53.92,168.48,168.48,168.48,148.28,0,187.45-105.26,188.71-168.48,.98-48.85,0-195.45,0-195.45,0,0-67.39-53.92-175.23-53.92-141.53,0-181.97,67.39-181.97,67.39h.01Z"/><path class="d" d="M545.74,377.96s74.14,0,74.14-47.17c0-40.44-74.14-40.44-74.14-40.44v87.61h0Z"/><ellipse class="f" cx="272.79" cy="320.68" rx="43.81" ry="70.76"/><ellipse class="f" cx="400.84" cy="320.68" rx="43.81" ry="70.76"/><path class="f" d="M316.59,324.05s6.74-13.48,20.22-13.48,20.22,13.48,20.22,13.48"/><path class="e" d="M296.37,452.1s6.74,40.44,33.7,40.44c33.7,0,33.7-40.44,33.7-40.44"/><path class="g" d="M262.68,330.79s0-20.22,13.48-20.22,13.48,20.22,13.48,20.22"/><path class="g" d="M385.21,334.2s0-20.22,13.48-20.22,13.48,20.22,13.48,20.22"/><path class="h" d="M330.08,142.09s20.22,47.17,74.14,80.87c66.65,41.65,155.01,67.39,155.01,67.39,0,0,7.01-93.26,0-121.31-6.74-26.95-40.44-60.66-94.36-80.87-22.75-8.54-53.92-20.22-141.53-6.74-87.61,13.48-101.09,60.66-114.57,87.61-26.95,53.92-13.48,121.31-13.48,121.31,0,0,64.43-41.47,80.87-60.66,40.44-47.17,53.92-87.61,53.92-87.61h0Z"/></g></svg>