<?xml version="1.0" encoding="UTF-8"?><svg id="a" xmlns="http://www.w3.org/2000/svg" viewBox="0 0 784.92 805.8"><defs><style>.b{fill:#e9f4f1;}.c{fill:#d6d6d6;}.d{stroke:#ea553c;stroke-width:9px;}.d,.e{fill:none;stroke-miterlimit:10;}.f{fill:#cfac8f;}.g{fill:#e2bb9a;}.e{stroke:#4959a4;stroke-width:13px;}.h{fill:#1d1d1b;}</style></defs><path class="b" d="M563.4,742.73c-73.71,36.4-229.71,72.92-299.7,60.64-75.39-13.22-215.27-92.59-251.58-166.03-22.06-44.65-7.14-167.93-7.86-224.41-.42-32.56-10.12-97.98,1.21-131C28.39,215.26,117.18,90.08,171.76,55.46,221.24,24.07,334-12.75,379.19,4.33c45.76,17.29,98.29,116,137.08,146.28,39.39,30.73,138.54,58.87,173.68,95.58,33.43,34.93,95.65,122.34,94.97,181.03-.61,52.89-57.72,161.93-89.91,208.13-25.62,36.75-95.89,89.72-131.62,107.36l.02,.02Z"/><g><path class="f" d="M537.4,286.07s-56.16-125.16-207.97-109.7c-115.67,11.78-176.64,134.27-176.64,134.27,0,0,14.96,157.35,21.35,209.64,8.25,67.68,61.77,176.3,220.82,160.1,122.89-12.52,164.99-134.96,162.31-199.13-2.05-49.01-19.88-195.19-19.88-195.19h.01Z"/><path class="d" d="M349.73,570.89s17.01,32.47,70.35,27.03c42.67-4.35,62.59-41.37,62.59-41.37"/><circle class="h" cx="478.12" cy="412.75" r="11.87"/><circle class="h" cx="338.38" cy="428.05" r="11.87"/><path class="e" d="M525.45,383.1l-96.66,8.71s1.57,62.33,54.13,57.88c51.51-4.36,42.53-66.59,42.53-66.59Z"/><path class="e" d="M378.21,398.75l-95.76,15.8s6.15,62.05,58.24,53.74c51.05-8.14,37.52-69.54,37.52-69.54Z"/><line class="e" x1="435.64" y1="408.94" x2="377.9" y2="417.97"/><path class="c" d="M159.92,459c8.9,7.62,38.56,9.89,46.82,1.59,16.22-16.29-2.93-68.91-3.53-91.9-.38-14.56-.59-44.21,3.62-58.16s20.36-39.11,29.3-50.7c13.27-17.22,58.81-44.06,56.93-65.71-.39-4.46-9.42-10.93-13.88-11.31-33.1-2.81-106.62,60.31-114.56,67.34-10.08,8.92-19.43,36.07-21.48,49.38-6.1,39.62-13.68,133.4,16.77,159.47Z"/><path class="g" d="M188.59,518.81l-9.57-93.98s-79.52,8.1-75.1,51.48c5.15,50.6,84.68,42.5,84.68,42.5h0Z"/></g></svg>