<?xml version="1.0" encoding="UTF-8"?><svg id="a" xmlns="http://www.w3.org/2000/svg" viewBox="0 0 1514.9033 1505.7676"><defs><style>.b{fill:#1d1d1b;}.b,.c,.d,.e,.f{stroke-miterlimit:10;}.b,.d,.e{stroke:#1d1d1b;stroke-width:20px;}.g{fill:#e9f4f1;}.c{fill:#048537;stroke:#088537;}.c,.f{stroke-width:30px;}.d{fill:#934222;}.e{fill:#dfabcf;}.f{fill:none;stroke:#37a936;}</style></defs><path class="g" d="M1471.5256,896.0294c-53.9503,152.437-222.2403,415.9118-335.9726,492.2575-122.5139,82.2405-423.0262,154.7199-571.5341,96.3347-90.2893-35.4968-234.0126-235.6733-310.3779-317.2029-44.0165-46.9931-144.8445-129.4822-173.1189-192.9906C23.425,846.18-20.1078,543.7402,9.6208,419.6595,36.5715,307.1731,144.2937,101.5055,229.9592,65.5859c86.7246-36.3637,291.5383,37.0638,385.9024,29.0247C711.6771,86.4479,887.1557-6.005,985.0142,.309c93.1218,6.0083,296.3189,49.8813,373.6808,136.5128,69.738,78.0941,135.8076,314.2632,152.6618,425.1119,13.4076,88.1806-13.6783,260.2005-39.8312,334.0957Z"/><g><path class="c" d="M670.1813,1209.3601s-29.3659-128.725-193.93-305.7091c-71.377-76.764-150.8344-76.764-150.8344-76.764,0,0-6.7337,75.4172,39.0553,140.0606,69.4253,98.0122,305.7091,242.4125,305.7091,242.4125Z"/><path class="c" d="M710.0377,1119.1461s75.3356-17.1862,178.9146-113.4965c44.9257-41.773,44.9257-88.275,44.9257-88.275,0,0-44.1375-3.9408-81.9697,22.8569-57.3611,40.6308-141.8706,178.9146-141.8706,178.9146Z"/><path class="f" d="M859.3374,490.3639c-258.5733,272.0407-146.7942,895.5795-146.7942,895.5795"/><circle class="b" cx="847.3273" cy="472.9434" r="173"/><path class="e" d="M998.7378,185.5106c31.7757,12.8321,44.1139,54.5293,26.8134,90.7302-28.7224,60.1007-74.3493,135.659-116.1033,118.5626-35.8083-14.6618-14.516-100.0443,6.9022-162.9669,12.8916-37.8733,50.7009-59.1222,82.3877-46.3259h.0001Z"/><path class="e" d="M1201.1863,504.3348c-1.3832,34.241-36.4908,59.8991-76.4032,55.7985-66.2626-6.8078-152.7721-24.3281-150.7337-69.4005,1.7481-38.6543,89.3142-47.3555,155.7744-48.3756,40.0026-.614,72.7418,27.8323,71.3625,61.9776h0Z"/><path class="e" d="M1147.473,307.758c19.456,28.2103,6.7913,69.8095-27.5858,90.4983-57.0729,34.3476-136.7685,72.288-162.205,35.0231-21.8144-31.9584,42.9798-91.5004,95.5099-132.226,31.618-24.5129,74.8792-21.4269,94.2808,6.7045h0Z"/><path class="e" d="M552.6659,358.1788c15.3177-30.655,57.8638-39.6392,92.5747-19.5154,57.6271,33.4096,129.3188,84.899,108.9571,125.1616-17.4622,34.5294-100.8817,6.5165-161.9024-19.8363-36.7285-15.8618-54.9043-55.2406-39.6294-85.8099h0Z"/><path class="e" d="M838.6183,158.3058c34.2521-1.0741,62.3601,32.1046,61.1302,72.2082-2.0419,66.5801-13.3177,154.1227-58.4204,155.3195-38.6801,1.0263-53.6341-85.691-59.4142-151.9072-3.479-39.8557,22.548-74.5493,56.7043-75.6204h.0001Z"/><path class="e" d="M651.3961,220.9678c26.7436-21.4276,69.1433-11.7764,92.2425,21.0297,38.3492,54.4648,81.9031,131.2367,46.5569,159.2782-30.313,24.0485-94.3451-36.3122-138.7304-85.7889-26.7156-29.7801-26.7378-73.1512-.069-94.5189h0Z"/><path class="e" d="M774.0281,832.7119c-32.9457-9.4309-49.5864-49.6052-36.1755-87.42,22.2648-62.7802,59.7208-142.7046,103.0368-130.0788,37.1479,10.8279,24.9221,97.9718,10.2171,162.7927-8.851,39.0159-44.2248,64.1107-77.0783,54.7061h-.0001Z"/><path class="e" d="M524.2775,531.8632c-2.2134-34.1974,30.0116-63.3939,70.1339-63.4993,66.6112-.1749,154.4805,8.1814,157.1776,53.2193,2.313,38.6246-83.8587,56.4561-149.8459,64.4365-39.7179,4.8034-75.2584-20.0547-77.4655-54.1564h0Z"/><path class="e" d="M603.2989,724.7273c-22.3057-26.0157-14.0709-68.7131,17.9484-92.8912,53.1584-40.1405,128.4384-86.225,157.6406-51.8316,25.0439,29.4959-33.1525,95.5012-81.1247,141.5085-28.8746,27.6919-72.2209,29.1573-94.4642,3.2144h0Z"/><path class="e" d="M979.9658,818.1288c-32.1879,11.7601-69.2819-10.9316-80.689-49.3984-18.9381-63.8625-35.6811-150.5258,6.7716-165.8048,36.4076-13.1033,77.7988,64.5517,104.0503,125.616,15.8009,36.7548,1.965,77.8598-30.1328,89.5871h-.0001Z"/><path class="e" d="M1141.5699,700.7639c-20.5105,27.4532-63.9754,28.7512-94.5681,2.7917-50.7901-43.0981-112.2162-106.4833-85.0381-142.4977,23.308-30.886,100.4386,11.4742,155.8198,48.229,33.3341,22.1228,44.2396,64.1005,23.7865,91.4769h0Z"/><circle class="d" cx="860.7263" cy="497.1279" r="111.7791"/></g></svg>