<?xml version="1.0" encoding="UTF-8"?><svg id="a" xmlns="http://www.w3.org/2000/svg" viewBox="0 0 1588.83 1524.75"><defs><style>.b,.c,.d{stroke:#1d1d1b;stroke-miterlimit:10;}.b,.e{fill:#b5aad4;}.b,.d{stroke-width:30px;}.c{fill:#b5dfee;stroke-width:61px;}.f{fill:#e9f4f1;}.d{fill:none;}</style></defs><path class="f" d="M301.03,1286.78C187.22,1171.92,23.12,905.81,3.82,770.2-16.97,624.11,48.43,321.98,165.58,213.63c71.22-65.87,313.98-108.26,420.6-141.58C647.64,52.84,765.76-2.09,835.24,.06c140.32,4.35,431.6,96.64,530.41,177.37,89.58,73.18,227.95,259.61,223.05,352.37-4.96,93.91-160.14,246.42-193.93,334.9-34.31,89.83-27.35,288.06-75.59,373.43-45.9,81.25-173.76,245.15-285.41,277.15-100.65,28.85-342.05-14.34-449.2-47.36-85.24-26.27-228.37-125.45-283.54-181.13Z"/><g><path class="b" d="M677.7,473.1l29.37,10.89c15.11,5.6,23.15,22.08,18.26,37.44l-47.27,148.57-103-38,56.81-138.78c7.35-17.97,27.63-26.87,45.83-20.12Z"/><polygon class="e" points="778.56 715.49 753.56 729.49 689.56 716.49 639.27 841.52 743.56 884.49 1000.06 841.52 977.56 783.49 778.56 715.49"/><path class="b" d="M697.63,666.44l67.93-167.8c4.48-11.06,17.37-16.04,28.12-10.86l46.43,22.38c9.51,4.58,21.99,17.39,18.45,27.33l-66.15,161.78c-10.56,29.68-45.09,42.97-72.82,28.04h0c-21.77-11.72-31.23-37.95-21.95-60.87Z"/><polygon class="e" points="1026.06 808.99 649.56 846.49 700.73 713.2 713.56 677.49 574.06 616.99 479.06 657.99 415.06 829.99 509.06 984.99 440.06 1194.99 788.06 1320.99 872.06 1103.99 923.06 1084.99 1026.06 808.99"/><path class="d" d="M654.56,855.49l-107-84,5.46-19.6c6.25-22.44,30.14-34.97,52.16-27.34l39.47,13.66c14.69,5.09,30.99,1.57,42.29-9.11l18.97-17.94c16.72-15.81,10.74-43.71-10.99-51.29l-97.09-33.87c-17.59-6.13-36.8-5.7-54.09,1.21l-36.94,14.78c-16.69,6.68-29.75,20.15-35.91,37.05l-35.68,97.99c-13.63,37.43-8.83,79.09,12.96,112.44l63.39,97.02-79,209,355,128,79.95-200.78c5.06-12.71,15.87-22.25,29.12-25.7h.05c18.09-4.72,32.73-18,39.16-35.55l92.73-252.97-239-84"/><path class="b" d="M935.18,839.46h0c-21.11-10.29-30.66-35.16-21.87-56.93l48.96-121.24c5.49-13.6,20.94-20.19,34.56-14.74l33.79,13.51c14.61,5.84,21.6,22.53,15.51,37.04l-50.12,119.47c-9.94,23.68-37.74,34.15-60.82,22.89Z"/><path class="b" d="M811.18,730.41l64.04-157.32c5-12.28,18.95-18.26,31.29-13.41l38.26,15.03c12.81,5.03,18.86,19.71,13.31,32.3l-69.79,158.55c-9.37,21.29-35.15,29.75-55.31,18.15l-4.34-2.5c-17.7-10.19-25.16-31.88-17.46-50.8Z"/><line class="c" x1="1094.56" y1="992.49" x2="1272.56" y2="1089.49"/><line class="c" x1="1221.16" y1="618.91" x2="1415.21" y2="560.27"/><line class="c" x1="1053.52" y1="189.15" x2="962.01" y2="370.03"/><line class="c" x1="537.3" y1="168.56" x2="622.23" y2="352.62"/><line class="c" x1="193.77" y1="529.09" x2="371.77" y2="626.09"/></g></svg>