<?xml version="1.0" encoding="UTF-8"?><svg id="a" xmlns="http://www.w3.org/2000/svg" viewBox="0 0 746.5 782.36"><defs><style>.b{fill:#e9f4f1;}.c{fill:#cda390;}.d{stroke:#dec904;stroke-width:12px;}.d,.e{fill:none;stroke-miterlimit:10;}.e{stroke:#ea553c;stroke-width:9px;}.f{fill:#7b4435;}.g{fill:#e8c4b0;}.h{fill:#1d1d1b;}</style></defs><path class="b" d="M271.14,743.47c-73.81-36.19-197.93-137.51-230.9-200.45C4.72,475.22-17.74,315.96,18.3,242.39c21.91-44.72,128.69-108.11,173.01-143.14,25.54-20.2,71.46-67.8,104.53-78.97,66.8-22.53,220.15-28.55,280.89-6.43,55.05,20.05,153.03,86.92,167.06,133.15,14.21,46.8-31.94,148.65-32.26,197.86-.31,49.96,37.89,145.69,30.23,195.92-7.28,47.8-38.57,150.42-85.49,185.69-42.28,31.79-163.51,53.07-219.76,55.75-44.75,2.12-129.59-21.23-165.36-38.78v.03Z"/><g><path class="g" d="M603.57,239.73s-66.08-69.8-240.68-39.46c-133.03,23.12-203.22,100.35-203.22,100.35,0,0,13.72,188.92,79.46,269.27,36.04,44.05,129.88,101.42,203.89,104.2,109.79,4.12,182.93-215.5,173.04-285.5-7.56-53.47-12.5-148.86-12.5-148.86h.01Z"/><path class="c" d="M219.55,539.96l-21.09-102.01s-94.02,16.38-84.29,63.47c11.35,54.93,105.38,38.54,105.38,38.54h0Z"/><path class="e" d="M409.21,540.6s-4.59,47.82,38.49,53.12c34.46,4.24,47.68-42.52,47.68-42.52"/><path class="f" d="M182.19,458.12l24.8-48.22s29.76-39.74,37.25-54.21c7.93-15.3,13.11-50.29,23.59-64.24,13.51-17.97,67.44-50.88,73.98-54.88,6.55-4,106.18-12.13,120.15-30,7.21-9.23-.15-17.77,10.68-21.36,13.87-4.59-12.97-68.83-22.55-73.58-13.96-6.94-54.07-15.39-59.34-15.43s-117.99,25.47-121.04,26-62.93,23.8-77.22,39.22c-19.13,20.65-41.14,101.65-41.14,101.65l1.64,43.62,29.2,151.44Z"/><path class="f" d="M612.27,348.11s-4.86-24.98-8.27-32.72c-4.8-10.9-17.87-31.31-26.18-39.81-18.34-18.76-64.68-44.52-87.91-56.18-11.39-5.72-65.65-9.26-72.99-19.86-5.99-8.65-15.15-54.29-13.73-64.56,1.26-9.09-4.15-22.7,2.06-29.21,10.17-10.65,88.89,7.7,103.71,8.77,11.44,.83,38.62,15.05,42.51,18.72,3.89,3.67,41.39,29.43,49.44,43.95,13.3,23.99,17.13,80.54,17.97,107.72,.49,15.95-6.62,63.17-6.62,63.17Z"/><ellipse class="h" cx="509.61" cy="416.71" rx="13.02" ry="11.96"/><ellipse class="h" cx="421.45" cy="413.28" rx="13.02" ry="11.96"/><path class="d" d="M184.64,518.29c20.57,9.89,30.77,57.18-4.35,59.74-37.98,2.77-23.74-39.16-23.74-39.16"/></g></svg>