<?xml version="1.0" encoding="UTF-8"?><svg id="a" xmlns="http://www.w3.org/2000/svg" viewBox="0 0 781.45 752.1"><defs><style>.b{fill:#e9f4f1;}.c{fill:#f18962;}.d{fill:none;stroke:#ea553c;stroke-miterlimit:10;stroke-width:9px;}.e{fill:#e8c7c6;}.f{fill:#1d1d1b;}</style></defs><path class="b" d="M44.03,258.53C82.56,185.91,187.81,65.1,251.77,34.16,320.67,.82,480.56-16.53,552.94,21.84c44,23.33,103.94,132.08,137.54,177.5,19.37,26.17,65.48,73.59,75.58,107,20.38,67.49,21.5,220.95-2.56,280.95-21.8,54.38-91.77,150.17-138.43,162.72-47.24,12.71-147.55-36.68-196.73-38.58-49.92-1.91-146.82,33.21-196.79,23.95-47.54-8.81-149.11-43.37-182.86-91.39C18.28,600.73,.89,478.87,.01,422.57c-.69-44.79,25.37-128.84,44.05-164.04h-.03Z"/><g><path class="c" d="M590.02,571.49s18.09,14.7,25.38,16.95c15.23,4.68,49.5,.37,63.26-7.66,7.28-4.25,16.42-22.33,15.24-30.08s-3.38-35.17-6.79-44.56c-3.41-9.39-13.23-21.77-18.81-25.88s-19.86-19.77-20.31-22.68-10.52-28.77-11.87-38.83c-1.69-12.62,2.24-38.15,2.15-50.88-.15-20.67-1.68-62.1-4.66-82.55-1.73-11.92-7.21-35.48-11.11-46.88-4.95-14.45-13.48-45.97-25.33-55.61-5.72-4.65-28.75-6.52-28.75-6.52l21.6,395.18Z"/><path class="e" d="M588.39,141.85s-68-64.95-237.98-22.16c-129.51,32.6-194.91,114.72-194.91,114.72,0,0,41.24,206.2,86.89,263.11,93.35,121.98,204.71,114.98,262.46,95.31,134.27-45.72,115.38-234.11,102.51-303.28-9.83-52.83-18.99-147.7-18.99-147.7h.01Z"/><path class="d" d="M467.19,500.83c-1.48-6.71,9.33,32.37,49.1,23.58,33.47-7.4,34.59-42.07,34.59-42.07"/><circle class="f" cx="530.11" cy="366.52" r="12.49"/><circle class="f" cx="468.69" cy="371.79" r="12.49"/><path class="c" d="M612.35,204.38s-44.11,45.14-58.15,51.03c-13,5.45-129.36,7.12-129.36,7.12,0,0-89-1.52-99.69,13.05-9.62,13.12-40.52,40.17-45.1,55.78-5.77,19.67-21.38,24.88-22.17,45.36-.65,16.91,8.63,50.1,13.3,66.36,5.05,17.55,23.14,50.25,25.89,68.3,3.59,23.59-5.57,92.19-5.82,95.28s-63.12,38.74-69.78,40.38c-6.66,1.64-75.84,7.56-82.49,5.16-6.65-2.4-33.04-19.82-36.96-31.27-2.92-8.52,.31-28.17,5.36-35.63,3.87-5.71,22.4-7.18,23.82-13.93,1.65-7.89-16.79-23.11-17.73-26.92s-11.11-16.44-10.83-27.61c.28-11.17,5.95-29.33,7.51-39.19,1.29-8.11,.58-24.71,2.02-32.79,1.27-7.09,7.22-23.98,10.56-26.82s20.08-15.13,22.66-22.73c2.37-6.99-2.77-23.54-4.17-29.25-1.4-5.71-8.93-28.08-11.28-33.55s-14.39-29.76-14.84-35.7,2.72-29.94,6.33-39.9c3.6-9.97,6.87-24.82,10.1-32.76,4.25-10.43,16.11-29.78,22.72-38.89,8.5-11.72,35.56-40.03,38.9-42.87s35.62-33.38,49.11-42.36c11.44-7.61,44.05-21.94,49.76-23.35s39.03-13.64,52.33-12.88,49.89,5,64.6,12.36c6.75,3.38,18.13,13.79,22.98,19.57,7.72,9.2,180.42,108.64,180.42,108.64Z"/><path class="c" d="M427.96,160.25l25.49-.7,72.29,20.39,62.32,35.96,25.39,8.12s15.95-24.32,15.99-28.24-2.61-30.41-9.39-37.34c-6.78-6.93-37.83-35.69-43.69-37.72s-66.38-23.26-73.21-26.28c-6.83-3.01-42.97-13.21-50.81-13.29s-44.14,3.44-44.14,3.44l19.75,75.67Z"/></g></svg>