<?xml version="1.0" encoding="UTF-8"?><svg id="a" xmlns="http://www.w3.org/2000/svg" viewBox="0 0 777.58 789.17"><defs><style>.b{fill:#bba408;}.c{fill:#e9f4f1;}.d{fill:#c1a7a6;}.e{fill:none;stroke:#ea553c;stroke-miterlimit:10;stroke-width:9px;}.f{fill:#e8c7c6;}.g{fill:#1d1d1b;}</style></defs><path class="c" d="M411.07,7.41c80.24,17.87,224.65,87.27,271.46,140.72,50.43,57.58,109.6,207.13,91.82,287.1-10.82,48.62-99.75,135.27-134.62,179.72-20.09,25.62-53.57,82.67-83.1,101.28-59.66,37.56-207.32,79.38-271.55,72.11-58.22-6.58-169.14-48.62-193.63-90.27-24.79-42.17-3.8-152-15.03-199.91C65.02,449.52,5.44,365.42,1.1,314.79c-4.13-48.17,2.23-155.28,39.57-200.56C74.31,73.41,187.18,24.3,241.22,8.51c43-12.56,130.95-9.74,169.85-1.08v-.03Z"/><g><path class="f" d="M166.56,222.41s3.23,92.25,.41,144.2c-3.68,68.02,2.04,251.29,138.92,278.77,58.87,11.82,168.42,4.91,243.86-123.7,37.24-60.26,51.04-263.38,51.04-263.38,0,0-74.34-70.87-204.89-86.32-171.34-20.28-229.36,50.43-229.36,50.43h.01Z"/><path class="e" d="M274.1,509.52c.73-6.58-2.19,32.37,24.07,35.26,22.1,2.44,31.19-29.16,31.19-29.16"/><circle class="g" cx="264.9" cy="400.92" r="12.8"/><circle class="g" cx="354.95" cy="414.6" r="12.8"/><path class="d" d="M558.36,433.5s54.78,22.54,39.54,59.57c-13.06,31.74-67.84,9.2-67.84,9.2l28.3-68.76Z"/><path class="b" d="M312.42,159.9l-6.08,45.52s-41.02,44.37-43.42,51.28-22.97,35.75-25.56,41.02c-2.59,5.27-22.97,35.75-27.12,41.19s-33.26,28.57-33.26,28.57l-17.26-13.06-14.01-26.7s-26.52-25.33-28.62-30.08,11.97-49.49,11.97-49.49c0,0,19.37-25.38,23.34-32.47s29.41-34.79,29.41-34.79l53.16-5.84,52.74-24.06,31.15,9.87"/><path class="b" d="M291.07,241.11l34.75,10.57s46.83,2.64,51.36,3.97,18.13,33.05,24.17,37.01c6.04,3.97,21.15,34.37,25.68,37.01s28.7,17.18,36.26,22.47c7.55,5.29,21.15,26.44,25.68,31.72,4.53,5.29,19.64,30.4,22.66,37.01,3.02,6.61,19.64,34.37,21.15,38.33,1.51,3.97,16.62,25.11,16.62,25.11l16.62,6.61,21.15,6.61,21.15-27.76-7.55-9.25s-4.53-15.86-1.51-21.15l12.09-21.15c4.53-7.93,10.57-23.79,10.57-29.08,0-5.29-1.51-18.51-1.51-22.47,0-3.97-4.53-26.44-1.51-33.05s7.55-23.79,7.55-29.08v-25.11s-4.53-25.11-9.06-27.76-31.72-37.01-31.72-37.01c0,0-12.09-29.08-18.13-34.37-6.04-5.29-19.64-17.18-30.21-19.83s-57.41-17.18-57.41-17.18l-86.11-14.54-49.85-7.93s-24.17,0-36.26,6.61c-12.09,6.61-40.79,23.79-40.79,23.79l-6.04,33.05-1.51,39.65,31.72,17.18Z"/></g></svg>