<?xml version="1.0" encoding="UTF-8"?><svg id="a" xmlns="http://www.w3.org/2000/svg" viewBox="0 0 1511.51 1566.96"><defs><style>.b{fill:#99722c;}.c{fill:#e9f4f1;}.d{fill:#c69139;}.e{stroke:#1d1d1b;stroke-width:9px;}.e,.f{fill:none;stroke-miterlimit:10;}.f{stroke:#e8422a;stroke-width:15px;}.g{fill:#1d1d1b;}</style></defs><path class="c" d="M1333.59,1207.84c-103.22,124.47-352.07,313.72-485.15,346.15-143.36,34.93-450.43-.7-569.69-106.73-72.5-64.46-138.36-301.93-181.91-404.8C71.74,983.18,5.55,870.97,.92,801.61c-9.35-140.07,54.11-438.97,124.81-545.18C189.83,160.15,361.89,4.26,454.68,.09c93.95-4.22,260.86,135.35,352.21,160.36,92.75,25.39,289.35-.86,379.02,38.82,85.33,37.76,260.93,149.03,303.66,257.03,38.52,97.36,19.07,341.82-3.35,451.68-17.83,87.39-102.59,239.51-152.63,299.85Z"/><g><path class="d" d="M387.51,513.34s-48.62,279.41-57.37,373.47c-11.45,123.16,57.54,362.8,292.68,398.92,304.31,46.74,417.89-156.93,440.41-286.31,17.41-99.95,61.62-401.13,61.62-401.13,0,0-121.32-131.9-342.64-165.9-290.47-44.62-394.71,80.95-394.71,80.95Z"/><path class="b" d="M1029.11,1037.32s112.41,17.27,127.29-79.56c12.75-82.99-99.67-100.26-99.67-100.26l-27.62,179.82Z"/><path class="f" d="M507.26,1024.2s1.08,85.12,56.41,93.62c69.16,10.62,81.91-72.37,81.91-72.37"/><path class="e" d="M752.47,819.68s6.37-41.5-21.29-45.75c-27.66-4.25-34.04,37.25-34.04,37.25"/><path class="e" d="M499.93,788.05s6.37-41.5-21.29-45.75c-27.66-4.25-34.04,37.25-34.04,37.25"/><path class="g" d="M627.71,388.74l56.21,8.63s43.79,119.17,137.15,246.41c146.69,199.93,300.17,199.53,300.17,199.53,0,0,67.48-298.88-72.15-404.23-195.52-147.51-409.14-129.97-409.14-129.97l-12.23,79.63Z"/><path class="g" d="M729.73,356.92l-101.2,245.73-284.15-8.11s30.94-170.24,144.42-222.33c68.59-31.48,240.92-15.28,240.92-15.28Z"/></g></svg>