<?xml version="1.0" encoding="UTF-8"?><svg id="a" xmlns="http://www.w3.org/2000/svg" xmlns:xlink="http://www.w3.org/1999/xlink" viewBox="0 0 1197 1140.76"><defs><style>.c,.d{fill:#fff;}.e{fill:#d85e5e;}.f{fill:#8fc78a;}.g{fill:#d1d1d1;}.h{fill:#e9f4f1;}.i{clip-path:url(#b);}.j{fill:#5196d1;}.k{fill:#a2a2a1;}.l{fill:none;}.d{stroke:#010101;stroke-linecap:square;stroke-miterlimit:3;}.m{fill:#a61f1e;}.n{fill:rgba(1,1,1,0);}.o{fill:#5e5e5e;}.p{fill:#b9b9b9;}</style><clipPath id="b"><rect class="l" x="74.73" y="148.5" width="531" height="531"/></clipPath></defs><path class="h" d="M114.48,270.97C190.18,182.26,378.28,43.41,482.36,15.72c112.12-29.83,357.85-18.96,457.96,47.67,60.86,40.51,125.19,198.42,165,266.17,22.94,39.05,81.2,112.15,88.39,158.91,14.52,94.41-20.76,299.48-71.56,374.43-46.05,67.94-174.83,180.89-248.34,187.71-74.42,6.91-214.08-80.37-287.91-93.36-74.97-13.19-229.81,13.06-303.06-9.93-69.7-21.88-214.82-89.63-254.23-160.89C-6.91,722.18-3.83,555.86,8.41,480.53c9.74-59.93,69.38-166.56,106.07-209.56Z"/><path class="f" d="M747,444c-34.94-24.93-127.25-20.17-170-24-55.73-4.99-223.64-8.57-223.64-8.57,0,0-141.55,25.12-186.36,41.57-25.72,9.44-83.79,27-97,51-11.48,20.86,7,87,7,95s28.85,99.14,53,122c25.42,24.07,96.65,41.36,130,52,45.58,14.55,138.29,41.48,186,45,47.53,3.5,181.42-22.24,189-25,11-4,73.08-36.84,92-56,17.75-17.98,40.09-65.43,46-90,8.89-36.94,8.88-115.05,0-152-3.34-13.92-14.35-42.69-26-51Z"/><g class="i"><g><rect class="n" x="74.73" y="148.5" width="531" height="531"/><g><path class="c" d="M265.66,669.8l318.6-183.94-169.92-85.84L106.36,577.83l159.3,91.97Z"/><path class="g" d="M393.33,424.54l-37.17-21.46,37.17,58.25v-36.79Z"/><path class="p" d="M520.77,350.97l-37.17-21.46,37.17,58.25v-36.79Z"/><path class="d" d="M186.01,366.29l-42.48-24.53-37.17,64.38,37.17,21.46,42.48-61.31Z" vector-effect="non-scaling-stroke"/><path class="m" d="M186.01,366.29l-42.48-24.53-37.17,64.38,37.17,21.46,42.48-61.31Z"/><path class="m" d="M435.58,216.07l-37.17-21.46-37.17,64.38,74.34-42.92Z"/><path class="m" d="M308.14,289.65l-37.17-21.46-53.1,73.58,90.27-52.12Z"/><path class="e" d="M318.76,283.52l-47.79-15.33,37.17,21.46,10.62-6.13Z"/><path class="e" d="M228.49,476.66l64.93-37.49,35.96,58.95,63.72-36.79-37.17-58.25,63.72-36.79,37.17,58.25,63.72-36.79-37.17-58.25,63.72-36.79-42.48-116.5L186.01,360.16l42.48,116.5Z"/><path class="g" d="M143.76,427.61v171.68l84.96,49.05v-171.68l-84.96-49.05Z"/><path class="m" d="M297.75,430.67l-69.03-39.85v85.84l37.17,21.46,31.86-67.45Z"/><path class="m" d="M425.19,357.1l-69.03-39.85v85.84l37.17,21.46,31.86-67.45Z"/><path class="m" d="M552.63,283.52l-69.03-39.85v85.84l37.17,21.46,31.86-67.45Z"/><path class="c" d="M265.89,669.8v-91.97l318.6-183.94v91.97l-318.6,183.94Z"/><path class="c" d="M329.61,461.33v36.79l-63.72,36.79v-36.79l63.72-36.79Z"/><path class="c" d="M265.66,498.12l31.86-67.45,31.86,30.66-63.72,36.79Z"/><path class="c" d="M520.54,350.97l31.86-67.45,31.86,30.66-63.72,36.79Z"/><path class="c" d="M393.1,424.54l31.86-67.45,31.86,30.66-63.72,36.79Z"/><path class="c" d="M457.05,387.75v36.79l-63.72,36.79v-36.79l63.72-36.79Z"/><path class="c" d="M584.49,314.18v36.79l-63.72,36.79v-36.79l63.72-36.79Z"/><path class="c" d="M265.89,577.83v-42.92l316.23-182.58,2.37-1.37v42.92l-318.6,183.94Z"/><path class="o" d="M287.13,574.76l10.62-6.13v24.53l-10.62,6.13v-24.53Z"/><path class="o" d="M303.06,565.57l10.62-6.13v24.53l-10.62,6.13v-24.53Z"/><path class="o" d="M287.13,531.84l10.62-6.13v24.53l-10.62,6.13v-24.53Z"/><path class="o" d="M303.06,522.65l10.62-6.13v24.53l-10.62,6.13v-24.53Z"/><path class="k" d="M581.83,355.56l-2.65,1.53v6.13l2.65-1.53v6.13l-2.65,1.53v6.13l2.65-1.53v6.13l-2.65,1.53v6.13l2.65-1.53v6.13l2.66-1.53v-39.85l-2.66,1.53v3.07Z"/><path class="k" d="M265.89,498.12l2.66-1.53v3.07l2.65-1.53v6.13l-2.65,1.53v6.13l2.65-1.53v6.13l-2.65,1.53v6.13l2.65-1.53v6.13l-2.65,1.53v3.07l-2.66,1.53v-36.79Z"/><path class="k" d="M268.54,536.44l2.65-1.53v6.13l-2.65,1.53v6.13l2.65-1.53v6.13l-2.65,1.53v6.13l2.65-1.53v6.13l-2.65,1.53v3.07l-2.66,1.53v-36.79l2.66-1.53v3.07Z"/><path class="k" d="M329.61,461.33l-2.65,1.53v3.07l-2.66,1.53v6.13l2.66-1.53v6.13l-2.66,1.53v6.13l2.66-1.53v6.13l-2.66,1.53v6.13l2.66-1.53v3.07l2.65-1.53v-36.79Z"/><path class="g" d="M265.89,498.12l-37.17-21.46v171.68l37.17,21.46v-171.68Z"/><path class="g" d="M143.76,427.61l-37.17-21.46v171.68l37.17,21.46v-171.68Z"/><path class="g" d="M228.49,476.66l-42.48-116.5-42.48,67.45,84.96,49.05Z"/><path class="o" d="M297.75,485.86v24.53l-10.62,6.13v-24.53l10.62-6.13Z"/><path class="o" d="M303.06,482.79l10.62-6.13v24.53l-10.62,6.13v-24.53Z"/><path class="o" d="M425.19,412.28l-10.62,6.13v24.53l10.62-6.13v-24.53Z"/><path class="o" d="M430.5,409.22l10.62-6.13v24.53l-10.62,6.13v-24.53Z"/><path class="o" d="M414.57,458.27l10.62-6.13v24.53l-10.62,6.13v-24.53Z"/><path class="o" d="M430.5,449.07l10.62-6.13v24.53l-10.62,6.13v-24.53Z"/><path class="o" d="M414.57,501.19l10.62-6.13v24.53l-10.62,6.13v-24.53Z"/><path class="o" d="M430.5,491.99l10.62-6.13v24.53l-10.62,6.13v-24.53Z"/><path class="o" d="M552.63,338.7v24.53l-10.62,6.13v-24.53l10.62-6.13Z"/><path class="o" d="M557.94,335.64l10.62-6.13v24.53l-10.62,6.13v-24.53Z"/><path class="o" d="M552.63,421.54v24.53l-10.62,6.13v-24.53l10.62-6.13Z"/><path class="o" d="M557.94,418.47l10.62-6.13v24.53l-10.62,6.13v-24.53Z"/><path class="o" d="M552.63,379.06v24.53l-10.62,6.13v-24.53l10.62-6.13Z"/><path class="o" d="M557.94,375.99l10.62-6.13v24.53l-10.62,6.13v-24.53Z"/><path class="k" d="M581.83,315.71v3.07c-1.79,1.58-2.67,2.09-2.65,1.53,.02-.55,.02,1.49,0,6.13l2.65-1.53v6.13l-2.65,1.53v6.13l2.65-1.53v6.13l-2.65,1.53v6.13l2.65-1.53v3.07l2.66-1.53v-36.79l-2.66,1.53Z"/><path class="k" d="M520.77,350.97l2.65-1.53v3.07l2.66-1.53v6.13l-2.66,1.53v6.13l2.66-1.53v6.13l-2.66,1.53v6.13l2.66-1.53v6.13l-2.66,1.53v3.07l-2.65,1.53v-36.79Z"/><path class="k" d="M393.33,461.33v-36.79l2.65-1.53v3.07l2.66-1.53v6.13l-2.66,1.53v6.13l2.66-1.53v6.13l-2.66,1.53v6.13l2.66-1.53v6.13l-2.66,1.53v3.07l-2.65,1.53Z"/><path class="k" d="M457.05,387.75l-2.66,1.53v3.07l-2.65,1.53v6.13l2.65-1.53v6.13l-2.65,1.53v6.13l2.65-1.53v6.13l-2.65,1.53v6.13l2.65-1.53v3.07l2.66-1.53v-36.79Z"/></g></g></g><path class="j" d="M552,650c0-18.56,37.18-42.29,53-52,18.66-11.46,62.44-20.46,83-28,14.65-5.37,42.67-20.12,58-23,33.18-6.23,101.32,.63,135,3,48.36,3.4,149,1.57,192.55,22.86,18.04,8.82,50.66,37.91,56.45,57.14,8.23,27.32-10.83,85.74-22,112-5.96,14-28,40-41,45-13,5-100.29,31.42-135,34-47.04,3.5-142.85-2.36-188-16-22.58-6.82-64.94-28.59-85-41s-55.91-40.43-72.58-56.19c-11.26-10.64-32.42-37.32-32.42-52.81"/></svg>