<?xml version="1.0" encoding="UTF-8"?><svg id="a" xmlns="http://www.w3.org/2000/svg" viewBox="0 0 590.96 638"><defs><style>.b{fill:#e8394b;}.c{stroke:#fff;stroke-width:8px;}.c,.d{fill:none;stroke-miterlimit:3.86;}.d{stroke:#e8394b;stroke-width:6px;}.e{fill:#d0e5c7;}.f{fill:#1d1d1b;}</style></defs><rect class="e" x=".96" width="590" height="638"/><polyline class="c" points="10.27 366 17.8 360.49 15.79 355.47 22.31 349.95 31.34 349.95 42.38 348.45 40.87 334.4 50.4 333.9 58.43 328.88 73.98 355.47 83.01 371.52 95.05 386.07 101.07 395.1 107.09 390.08 96.56 377.04 106.09 366.51 102.58 359.98 101.57 350.45 106.59 347.44 112.11 338.41 107.59 335.9 106.59 328.88 112.61 326.37 109.6 322.36 103.08 321.86 112.11 308.82 109.6 300.79 117.12 281.73 121.64 278.72 121.64 271.45 103.4 266.02 99.95 257.65 93.55 257.65 94.04 251.73 86.15 250.75 57.07 224.13 47.22 224.62 39.33 229.55 26 229.55 17.98 219.02 24.5 204.47 23.49 194.44 16.47 191.43 17.47 186.41 28.01 189.92 32.02 184.4 23.49 179.39 27.01 171.86 16.47 153.8 10.45 153.3 4.93 148.28 8.44 141.26"/><polyline class="c" points="11.17 613.95 23.49 599.65 50.6 584.87 55.53 587.82 58.48 580.43 59.47 566.63 63.41 566.14 64.89 560.22 68.34 556.28 66.86 548.89 69.82 542.48 85.59 533.12 95.45 522.77 100.87 521.29 104.32 516.36 102.35 510.45 105.8 504.53 114.67 508.97 126.5 498.62 123.54 493.2 125.51 487.28 136.35 476.93 135.86 468.55 150.15 466.58 167.4 479.89 181.2 478.9 189.09 463.62 202.4 461.65 214.72 452.29 224.58 452.29 220.14 444.9 225.07 443.42 230.49 451.8 235.42 446.87 229.5 438 220.63 437.01 212.75 430.11 211.27 424.2 204.86 424.2 197.96 420.75 195.5 413.85 179.23 400.54 173.32 401.53 169.38 397.58 171.35 392.16 167.4 385.75 162.48 379.84 154.1 382.8 135.86 382.3 135.37 394.13 130.93 395.61 121.57 403.99 106.78 390.19"/><polyline class="c" points="237.52 447.51 251.57 451.53 260.6 445.51 274.14 457.55 295.21 448.52 297.72 443 293.71 437.98 291.7 421.93 300.73 420.93 306.75 415.91 326.31 431.96 348.39 452.53 346.88 473.6 357.92 475.61 357.42 490.15 355.91 497.68 350.9 506.71 369.46 514.74 368.45 526.27 368.45 538.82 375.98 539.32 379.49 555.87 371.97 575.44 372.97 591.99 365.44 601.02 358.42 602.53 358.42 609.31 355.91 615.83 362.43 614.83 367.95 618.84 367.45 624.86"/><polyline class="c" points="558.08 632.38 547.55 628.87 552.06 622.35 549.55 614.32 555.07 610.31 555.07 592.25 552.06 586.23 555.57 574.69 543.03 570.68 527.98 567.67 513.93 561.65 500.89 554.13 491.86 553.62 487.85 560.15 483.84 568.67 475.31 568.67 465.78 568.67 458.25 574.69 452.23 570.18 451.23 565.16 444.71 562.15 438.69 561.15 437.18 549.11 429.66 546.1 433.17 531.55 413.1 515 406.08 521.52 408.08 527.54 402.57 530.55 397.55 520.51 392.03 521.52 395.54 530.55 387.02 530.55 381.5 538.07 375.98 539.08"/><polyline class="c" points="325.81 431.96 333.84 422.43 328.32 416.91 328.82 407.88 335.85 402.36 350.39 405.88 380.49 407.38 390.53 408.89 397.55 398.85 392.53 393.33 392.03 380.79 394.54 376.78 391.03 370.26 396.05 364.24 410.59 368.25 421.63 361.73 431.66 357.22 442.2 346.68 453.23 345.68 461.26 348.69 460.26 359.22 469.29 358.22 483.33 355.21 496.38 344.17 507.41 344.67 510.42 335.64 518.95 327.62 527.48 323.6 535.51 326.61 539.52 330.63 541.53 339.16 549.55 348.69 557.08 352.2 551.56 355.71 546.04 368.75 548.05 375.28 555.57 379.29 559.08 386.81 577.14 394.34 577.14 383.3 586.17 373.27 588.96 372"/><polyline class="c" points="453.23 345.94 444.71 333.9 448.72 328.38 459.25 329.88 463.27 329.88 467.78 333.4 475.81 328.88 477.82 317.85 464.77 283.23 458.25 284.74 456.75 278.21 448.72 281.73 446.21 277.71 438.18 280.72 436.18 275.2 428.65 276.21 427.65 268.18 421.63 261.66 424.64 250.62 420.63 246.11 420.63 241.09 418.12 233.57 417.11 226.04"/><polyline class="c" points="540.2 331.39 547.22 330.89 551.74 326.37 553.24 318.85 544.72 318.35 533.68 290.76 532.18 277.71 526.16 275.2 522.64 261.66 528.66 252.13 548.23 227.55 556.76 225.54 567.29 210.49 560.27 203.97 557.76 192.43 547.73 195.44 529.17 193.94 524.65 179.39 511.61 178.89 509.1 187.92 503.58 188.42 501.07 195.44 495.55 196.44 488.53 209.49 483.51 209.49 479 219.02 466.46 219.52 466.96 211.49 463.45 207.98 456.93 208.99 454.92 213 446.89 220.52 432.85 218.02"/><polyline class="c" points="428.96 1 429.15 8.82 423.13 11.83 409.96 5 396.55 5.31 396.05 22.37 383 31.9 374.47 26.88 362.43 31.9 361.93 41.43 368.45 43.94 373.47 57.48 372.97 63.5 363.44 60.49 359.42 65.51 366.45 69.02 366.45 79.06 359.42 82.57 361.43 90.59 355.41 93.1 351.4 86.08 343.37 85.58 341.87 76.55 335.34 79.56 331.83 85.58 334.34 92.6 334.84 109.16 328.82 117.68 327.32 111.66 322.8 113.17 321.3 119.19 309.26 119.19 308.76 130.23"/><polyline class="c" points="525.47 179.39 527.98 173.37 525.97 162.33 536.01 147.28 527.48 148.28 522.46 135.24 530.99 129.72 529.49 123.2 519.95 124.21 521.96 109.66 517.45 98.12 518.45 86.58 506.91 69.52 518.45 64.51 511.93 46.45 495.88 51.46 487.35 42.44 486.34 36.42 492.36 34.41 480.83 6.82 475.31 6.82"/><polyline class="c" points="585.96 190 577.83 205.98 567.29 210.99"/><polyline class="c" points="517.95 85.82 529.99 90.33 536.51 85.82 551.06 89.83 555.07 82.31 547.04 76.79 547.04 69.79 554.92 67.94 561.4 68.41 562.33 61 573.44 61 578.53 70.72 574.37 76.74 575.29 82.76 581.31 84.61"/><polyline class="c" points="93.22 251.63 109.28 253.13 113.29 257.14 120.31 258.65 129.85 251.63 131.35 242.09 141.89 235.07 145.4 225.04 120.31 207.48 125.33 200.46 146.9 199.45 153.42 217.51 158.86 217.51 162.2 221.34 163.63 219.79 171.31 217.04 169.34 215.27 170.92 207.26 175.58 207.48 187.73 207.48 186.75 194.14 191.19 192.17 193.17 181.8 190.7 174.88 165.51 170.93 179.83 153.15 191.78 151.45 200.58 144.26 218.36 140.8 222.8 146.23 232.19 147.71 244.04 143.76 244.04 138.33 249.48 135.86 248.49 128.94 259.85 130.43 262.32 126.47 272.69 125.49 276.64 119.56 285.53 121.53 290.97 118.57 292.45 123.51 287.51 128.94 297.39 131.91 306.28 129.93 305.29 144.26 288.5 151.67 287.24 170.46 313.19 172.9 321.59 179.82 329.82 180.5 330.48 174.39 363.08 166.98 369.5 175.37 380.67 175.37 389.7 168.85 402.75 173.87 403.75 179.89 424.32 186.91 426.83 195.44 434.85 204.97 430.34 213.5 432.85 217.01 417.8 225.54 416.29 216.51 410.77 215.01 401.24 220.02 393.72 237.58 389.7 251.63 398.23 255.14 401.24 267.18 394.72 288.75 402.25 304.8 399.74 318.85 402.25 325.37 395.72 331.39 397.23 345.94 397.73 356.97 396.73 364"/><circle class="f" cx="144.46" cy="41.5" r="8.5"/><circle class="f" cx="263.46" cy="234.5" r="8.5"/><circle class="f" cx="565.46" cy="132.5" r="8.5"/><circle class="f" cx="493.46" cy="249.5" r="8.5"/><circle class="b" cx="354.46" cy="319.5" r="8.5"/><g><path class="f" d="M164.57,50.12v-17.35h2.35v17.35h-2.35Zm1.6-7.9v-2.15h10.15v2.15h-10.15Zm9.6,7.9v-17.35h2.35v17.35h-2.35Z"/><path class="f" d="M180.92,50.12l7.12-17.35h1.7l7.07,17.35h-2.55l-5.85-14.67h.9l-5.88,14.67h-2.52Zm3.4-3.92v-2.05h9.12v2.05h-9.12Z"/><path class="f" d="M199.42,50.12v-17.35h1.65l.7,2.75v14.6h-2.35Zm12,0l-10.65-14.2,.3-3.15,10.67,14.2-.33,3.15Zm0,0l-.7-2.58v-14.77h2.35v17.35h-1.65Z"/><path class="f" d="M217.17,50.12v-17.35h1.65l.7,2.75v14.6h-2.35Zm12,0l-10.65-14.2,.3-3.15,10.67,14.2-.33,3.15Zm0,0l-.7-2.58v-14.77h2.35v17.35h-1.65Z"/><path class="f" d="M242.82,50.37c-1.23,0-2.38-.23-3.45-.69-1.07-.46-2-1.1-2.8-1.92-.8-.83-1.43-1.78-1.88-2.86-.45-1.08-.68-2.24-.68-3.48s.23-2.41,.68-3.49c.45-1.08,1.07-2.02,1.86-2.84,.79-.82,1.72-1.45,2.77-1.9,1.06-.45,2.2-.68,3.44-.68s2.38,.23,3.44,.68c1.06,.45,1.99,1.08,2.79,1.9,.8,.82,1.42,1.77,1.88,2.85s.67,2.25,.67,3.5-.22,2.39-.67,3.47c-.45,1.08-1.07,2.03-1.86,2.85-.79,.82-1.72,1.45-2.78,1.91s-2.2,.69-3.41,.69Zm-.05-2.25c1.23,0,2.33-.29,3.27-.86,.95-.58,1.7-1.37,2.24-2.38,.54-1.01,.81-2.16,.81-3.46,0-.97-.15-1.85-.46-2.66-.31-.81-.75-1.51-1.31-2.11-.57-.6-1.23-1.06-2-1.39-.77-.33-1.62-.49-2.55-.49-1.23,0-2.32,.28-3.26,.85-.94,.57-1.68,1.35-2.23,2.35-.54,1-.81,2.15-.81,3.45,0,.97,.15,1.86,.46,2.69,.31,.83,.74,1.53,1.3,2.12,.56,.59,1.23,1.05,2,1.39,.78,.33,1.62,.5,2.54,.5Z"/><path class="f" d="M259.47,50.12l-6.98-17.35h2.58l5.72,14.68h-.92l5.77-14.68h2.52l-7,17.35h-1.7Z"/><path class="f" d="M270.99,50.12v-17.35h2.35v17.35h-2.35Zm1.6-15.2v-2.15h9.83v2.15h-9.83Zm0,7.38v-2.07h9.12v2.07h-9.12Zm0,7.83v-2.15h9.95v2.15h-9.95Z"/><path class="f" d="M285.74,50.12v-17.35h2.35v17.35h-2.35Zm1.58-7.55v-1.98h4.7c1.02,0,1.8-.26,2.34-.77,.54-.52,.81-1.22,.81-2.1,0-.83-.27-1.52-.81-2.08-.54-.55-1.31-.82-2.31-.82h-4.73v-2.05h4.8c1.1,0,2.06,.21,2.88,.64,.82,.42,1.45,1,1.89,1.74,.44,.73,.66,1.58,.66,2.52s-.22,1.84-.66,2.58c-.44,.73-1.07,1.3-1.89,1.71-.82,.41-1.77,.61-2.88,.61h-4.8Zm8.42,7.55l-6.3-7.77,2.23-.77,7.05,8.55h-2.98Z"/></g><g><path class="f" d="M213.33,217.87v-17.35h2.35v17.35h-2.35Zm1.6-7.9v-2.15h10.15v2.15h-10.15Zm9.6,7.9v-17.35h2.35v17.35h-2.35Z"/><path class="f" d="M230.98,217.87v-17.35h2.35v17.35h-2.35Z"/><path class="f" d="M237.43,217.87v-17.35h2.35v17.35h-2.35Zm1.6,0v-2.15h9.3v2.15h-9.3Z"/><path class="f" d="M251.23,217.87v-17.35h2.35v17.35h-2.35Zm1.55,0v-2.15h4.82c1.27,0,2.39-.28,3.36-.84s1.73-1.33,2.27-2.31c.54-.98,.81-2.12,.81-3.4s-.27-2.39-.83-3.36c-.55-.98-1.31-1.74-2.27-2.3-.97-.56-2.08-.84-3.35-.84h-4.8v-2.15h4.85c1.27,0,2.44,.22,3.51,.65,1.08,.43,2.01,1.04,2.8,1.83,.79,.78,1.41,1.7,1.85,2.75,.44,1.05,.66,2.2,.66,3.45s-.22,2.38-.66,3.44c-.44,1.06-1.05,1.98-1.84,2.76-.78,.78-1.71,1.39-2.79,1.83-1.08,.43-2.24,.65-3.49,.65h-4.92Z"/><path class="f" d="M269.73,217.87v-17.35h2.35v17.35h-2.35Zm1.6-15.2v-2.15h9.83v2.15h-9.83Zm0,7.38v-2.07h9.12v2.07h-9.12Zm0,7.83v-2.15h9.95v2.15h-9.95Z"/><path class="f" d="M288.83,218.12c-1.35,0-2.51-.25-3.48-.75-.97-.5-1.83-1.23-2.58-2.17l1.6-1.6c.55,.77,1.18,1.35,1.9,1.74,.72,.39,1.6,.59,2.65,.59s1.86-.22,2.49-.67,.94-1.07,.94-1.85c0-.65-.15-1.17-.46-1.57-.31-.4-.71-.73-1.21-.99-.5-.26-1.05-.49-1.65-.69-.6-.2-1.2-.42-1.8-.66-.6-.24-1.15-.55-1.66-.91s-.91-.84-1.21-1.41c-.3-.58-.45-1.31-.45-2.21,0-.98,.24-1.82,.71-2.51,.47-.69,1.12-1.23,1.95-1.6,.83-.38,1.75-.56,2.79-.56,1.13,0,2.15,.22,3.05,.66,.9,.44,1.63,1.02,2.2,1.74l-1.6,1.6c-.52-.6-1.07-1.05-1.66-1.35-.59-.3-1.27-.45-2.04-.45-.93,0-1.68,.2-2.23,.61-.55,.41-.83,.98-.83,1.71,0,.58,.15,1.05,.46,1.41,.31,.36,.71,.66,1.21,.91s1.05,.48,1.66,.69c.61,.21,1.21,.44,1.81,.69,.6,.25,1.15,.57,1.65,.95s.9,.88,1.21,1.49c.31,.61,.46,1.37,.46,2.29,0,1.53-.53,2.73-1.59,3.6-1.06,.87-2.5,1.3-4.31,1.3Z"/><path class="f" d="M297.91,217.87v-17.35h2.35v17.35h-2.35Zm1.6-7.9v-2.15h10.15v2.15h-10.15Zm9.6,7.9v-17.35h2.35v17.35h-2.35Z"/><path class="f" d="M315.56,217.87v-17.35h2.35v17.35h-2.35Zm1.6-15.2v-2.15h9.83v2.15h-9.83Zm0,7.38v-2.07h9.13v2.07h-9.13Zm0,7.83v-2.15h9.95v2.15h-9.95Z"/><path class="f" d="M330.31,217.87v-17.35h2.35v17.35h-2.35Z"/><path class="f" d="M336.76,217.87v-17.35h1.65l7.35,12.08h-1.12l7.35-12.08h1.65v17.35h-2.35v-13.23l.52,.15-5.77,9.53h-1.68l-5.77-9.53,.52-.15v13.23h-2.35Z"/></g><g><path class="f" d="M432.1,287.78c-1.35,0-2.51-.25-3.47-.75-.97-.5-1.83-1.23-2.58-2.17l1.6-1.6c.55,.77,1.18,1.35,1.9,1.74,.72,.39,1.6,.59,2.65,.59s1.86-.22,2.49-.67,.94-1.07,.94-1.85c0-.65-.15-1.17-.46-1.57-.31-.4-.71-.73-1.21-.99-.5-.26-1.05-.49-1.65-.69-.6-.2-1.2-.42-1.8-.66-.6-.24-1.15-.55-1.66-.91-.51-.37-.91-.84-1.21-1.41-.3-.58-.45-1.31-.45-2.21,0-.98,.24-1.82,.71-2.51,.47-.69,1.12-1.23,1.95-1.6,.83-.38,1.75-.56,2.79-.56,1.13,0,2.15,.22,3.05,.66,.9,.44,1.63,1.02,2.2,1.74l-1.6,1.6c-.52-.6-1.07-1.05-1.66-1.35-.59-.3-1.27-.45-2.04-.45-.93,0-1.68,.2-2.23,.61-.55,.41-.83,.98-.83,1.71,0,.58,.15,1.05,.46,1.41,.31,.36,.71,.66,1.21,.91s1.05,.48,1.66,.69c.61,.21,1.21,.44,1.81,.69s1.15,.57,1.65,.95,.9,.88,1.21,1.49,.46,1.37,.46,2.29c0,1.53-.53,2.73-1.59,3.6s-2.5,1.3-4.31,1.3Z"/><path class="f" d="M439.33,287.53l7.12-17.35h1.7l7.07,17.35h-2.55l-5.85-14.67h.9l-5.88,14.67h-2.52Zm3.4-3.92v-2.05h9.12v2.05h-9.12Z"/><path class="f" d="M457.83,287.53v-17.35h2.35v17.35h-2.35Zm1.6,0v-2.15h9.3v2.15h-9.3Z"/><path class="f" d="M470.53,285.9l9.8-14.1h2.78l-9.8,14.1h-2.78Zm0,1.62v-1.62l2.03-.52h10.38v2.15h-12.4Zm.53-15.2v-2.15h12.05v1.62l-2.05,.52h-10Z"/><path class="f" d="M493.48,287.78c-1.2,0-2.33-.23-3.39-.69s-1.98-1.1-2.77-1.91c-.79-.82-1.41-1.77-1.86-2.85-.45-1.08-.68-2.25-.68-3.5s.23-2.41,.68-3.49c.45-1.08,1.07-2.02,1.88-2.84,.8-.82,1.74-1.45,2.81-1.9,1.07-.45,2.25-.68,3.51-.68,1.38,0,2.66,.27,3.83,.8s2.14,1.3,2.92,2.3l-1.62,1.62c-.55-.8-1.27-1.41-2.17-1.84-.9-.43-1.88-.64-2.95-.64-1.27,0-2.39,.28-3.36,.85-.97,.57-1.73,1.35-2.27,2.35-.54,1-.81,2.15-.81,3.45s.27,2.48,.82,3.48c.55,1,1.29,1.78,2.23,2.35,.93,.57,1.99,.85,3.17,.85s2.3-.23,3.19-.7c.89-.47,1.58-1.15,2.05-2.06,.48-.91,.72-2.02,.74-3.34l1.43,1.05h-7.5v-2.17h8.5v.35c0,2.02-.35,3.7-1.06,5.06-.71,1.36-1.69,2.38-2.95,3.06-1.26,.68-2.7,1.02-4.34,1.02Z"/><path class="f" d="M504.95,287.53v-17.35h2.35v17.35h-2.35Z"/><path class="f" d="M510.1,272.33v-2.15h14.12v2.15h-14.12Zm5.88,15.2v-16.85h2.38v16.85h-2.38Z"/><path class="f" d="M524.6,272.33v-2.15h14.12v2.15h-14.12Zm5.88,15.2v-16.85h2.38v16.85h-2.38Z"/><path class="f" d="M541.53,287.53v-17.35h2.35v17.35h-2.35Zm1.6-15.2v-2.15h9.83v2.15h-9.83Zm0,7.38v-2.07h9.12v2.07h-9.12Zm0,7.83v-2.15h9.95v2.15h-9.95Z"/><path class="f" d="M556.28,287.53v-17.35h2.35v17.35h-2.35Zm1.58-7.55v-1.98h4.7c1.02,0,1.79-.26,2.34-.77s.81-1.22,.81-2.1c0-.83-.27-1.52-.81-2.08-.54-.55-1.31-.82-2.31-.82h-4.72v-2.05h4.8c1.1,0,2.06,.21,2.88,.64,.82,.42,1.45,1,1.89,1.74,.44,.73,.66,1.58,.66,2.52s-.22,1.84-.66,2.58c-.44,.73-1.07,1.3-1.89,1.71-.82,.41-1.78,.61-2.88,.61h-4.8Zm8.42,7.55l-6.3-7.77,2.22-.77,7.05,8.55h-2.97Z"/></g><g><path class="f" d="M356.4,140.53v-17.35h2.35v17.35h-2.35Zm1.58,0v-2.05h5.25c1,0,1.78-.3,2.35-.89,.57-.59,.85-1.3,.85-2.14,0-.57-.12-1.07-.38-1.52-.25-.45-.61-.81-1.09-1.09-.47-.27-1.04-.41-1.69-.41h-5.3v-2.05h4.95c.85,0,1.52-.22,2.01-.66,.49-.44,.74-1.08,.74-1.91s-.26-1.47-.78-1.91c-.52-.44-1.21-.66-2.07-.66h-4.85v-2.05h4.92c1.13,0,2.08,.2,2.84,.61,.76,.41,1.33,.95,1.72,1.61,.39,.67,.59,1.4,.59,2.2,0,.93-.25,1.75-.76,2.45-.51,.7-1.25,1.25-2.24,1.65l.2-.75c1.12,.4,1.99,1,2.61,1.81,.62,.81,.94,1.76,.94,2.86,0,.92-.22,1.74-.67,2.48s-1.1,1.32-1.94,1.76c-.84,.44-1.87,.66-3.09,.66h-5.12Z"/><path class="f" d="M371.98,140.53v-17.35h2.35v17.35h-2.35Zm1.58-7.55v-1.98h4.7c1.02,0,1.79-.26,2.34-.77s.81-1.22,.81-2.1c0-.83-.27-1.52-.81-2.08-.54-.55-1.31-.82-2.31-.82h-4.72v-2.05h4.8c1.1,0,2.06,.21,2.88,.64,.82,.42,1.45,1,1.89,1.74,.44,.73,.66,1.58,.66,2.52s-.22,1.84-.66,2.58c-.44,.73-1.07,1.3-1.89,1.71-.82,.41-1.78,.61-2.88,.61h-4.8Zm8.42,7.55l-6.3-7.77,2.22-.77,7.05,8.55h-2.97Z"/><path class="f" d="M385.53,140.53l7.12-17.35h1.7l7.07,17.35h-2.55l-5.85-14.67h.9l-5.88,14.67h-2.52Zm3.4-3.92v-2.05h9.12v2.05h-9.12Z"/><path class="f" d="M410.35,140.78c-1.28,0-2.43-.29-3.45-.88-1.02-.58-1.82-1.38-2.41-2.39-.59-1.01-.89-2.15-.89-3.41v-10.93h2.38v10.88c0,.92,.19,1.71,.58,2.38,.38,.67,.9,1.18,1.56,1.55,.66,.37,1.4,.55,2.24,.55s1.57-.18,2.21-.55c.64-.37,1.15-.88,1.52-1.55,.38-.67,.56-1.45,.56-2.35v-10.9h2.38v10.95c0,1.27-.29,2.4-.88,3.4s-1.38,1.79-2.38,2.38c-1,.58-2.14,.88-3.42,.88Z"/><path class="f" d="M420.9,140.53v-17.35h1.65l.7,2.75v14.6h-2.35Zm12,0l-10.65-14.2,.3-3.15,10.67,14.2-.33,3.15Zm0,0l-.7-2.58v-14.77h2.35v17.35h-1.65Z"/><path class="f" d="M443.1,140.78c-1.35,0-2.51-.25-3.48-.75s-1.83-1.23-2.58-2.17l1.6-1.6c.55,.77,1.18,1.35,1.9,1.74,.72,.39,1.6,.59,2.65,.59s1.86-.22,2.49-.67,.94-1.07,.94-1.85c0-.65-.15-1.17-.46-1.57-.31-.4-.71-.73-1.21-.99-.5-.26-1.05-.49-1.65-.69-.6-.2-1.2-.42-1.8-.66-.6-.24-1.15-.55-1.66-.91-.51-.37-.91-.84-1.21-1.41-.3-.58-.45-1.31-.45-2.21,0-.98,.24-1.82,.71-2.51,.47-.69,1.12-1.23,1.95-1.6s1.75-.56,2.79-.56c1.13,0,2.15,.22,3.05,.66,.9,.44,1.63,1.02,2.2,1.74l-1.6,1.6c-.52-.6-1.07-1.05-1.66-1.35-.59-.3-1.27-.45-2.04-.45-.93,0-1.67,.2-2.22,.61-.55,.41-.83,.98-.83,1.71,0,.58,.15,1.05,.46,1.41,.31,.36,.71,.66,1.21,.91s1.05,.48,1.66,.69c.61,.21,1.21,.44,1.81,.69,.6,.25,1.15,.57,1.65,.95s.9,.88,1.21,1.49c.31,.61,.46,1.37,.46,2.29,0,1.53-.53,2.73-1.59,3.6-1.06,.87-2.5,1.3-4.31,1.3Z"/><path class="f" d="M460.13,140.78c-1.25,0-2.41-.23-3.47-.69-1.07-.46-2-1.1-2.79-1.91-.79-.82-1.4-1.77-1.84-2.85-.43-1.08-.65-2.24-.65-3.47s.22-2.42,.65-3.5c.43-1.08,1.04-2.03,1.82-2.84,.78-.81,1.71-1.44,2.78-1.9,1.07-.46,2.22-.69,3.45-.69,1.38,0,2.59,.23,3.62,.7,1.03,.47,1.95,1.1,2.75,1.9l-1.62,1.62c-.55-.62-1.23-1.1-2.03-1.45-.8-.35-1.71-.52-2.72-.52-.9,0-1.73,.16-2.5,.49-.77,.32-1.43,.79-2,1.39-.57,.6-1,1.31-1.31,2.12-.31,.82-.46,1.71-.46,2.68s.15,1.86,.46,2.67c.31,.82,.75,1.52,1.31,2.12,.57,.6,1.23,1.06,2,1.39,.77,.32,1.61,.49,2.52,.49,1.08,0,2.03-.18,2.83-.54,.8-.36,1.48-.85,2.03-1.46l1.62,1.62c-.8,.82-1.74,1.46-2.81,1.92-1.08,.47-2.29,.7-3.64,.7Z"/><path class="f" d="M469.45,140.53v-17.35h2.35v17.35h-2.35Zm1.6-7.9v-2.15h10.15v2.15h-10.15Zm9.6,7.9v-17.35h2.35v17.35h-2.35Z"/><path class="f" d="M491.5,140.53l-5.65-17.35h2.35l4.5,14.15h-.67l4.42-14.15h1.7l4.42,14.15h-.65l4.5-14.15h2.33l-5.65,17.35h-1.67l-4.45-14.1h.65l-4.43,14.1h-1.7Z"/><path class="f" d="M511.62,140.53v-17.35h2.35v17.35h-2.35Zm1.6-15.2v-2.15h9.83v2.15h-9.83Zm0,7.38v-2.07h9.12v2.07h-9.12Zm0,7.83v-2.15h9.95v2.15h-9.95Z"/><path class="f" d="M526.37,140.53v-17.35h2.35v17.35h-2.35Z"/><path class="f" d="M540.65,140.78c-1.2,0-2.33-.23-3.39-.69s-1.98-1.1-2.78-1.91c-.79-.82-1.41-1.77-1.86-2.85-.45-1.08-.67-2.25-.67-3.5s.22-2.41,.67-3.49,1.08-2.02,1.88-2.84c.8-.82,1.74-1.45,2.81-1.9,1.08-.45,2.25-.68,3.51-.68,1.38,0,2.66,.27,3.83,.8,1.17,.53,2.14,1.3,2.92,2.3l-1.62,1.62c-.55-.8-1.28-1.41-2.17-1.84-.9-.43-1.88-.64-2.95-.64-1.27,0-2.39,.28-3.36,.85-.98,.57-1.73,1.35-2.28,2.35s-.81,2.15-.81,3.45,.28,2.48,.83,3.48,1.29,1.78,2.22,2.35c.93,.57,1.99,.85,3.18,.85s2.29-.23,3.19-.7c.89-.47,1.57-1.15,2.05-2.06,.47-.91,.72-2.02,.74-3.34l1.42,1.05h-7.5v-2.17h8.5v.35c0,2.02-.35,3.7-1.06,5.06s-1.69,2.38-2.95,3.06c-1.26,.68-2.7,1.02-4.34,1.02Z"/></g><g><polyline class="d" points="327.37 340.69 344.26 337.52 344.75 337.43 347.88 354.11"/><path class="d" d="M241.96,397s62,6,102.3-59.48"/></g></svg>