<?xml version="1.0" encoding="UTF-8"?><svg id="a" xmlns="http://www.w3.org/2000/svg" xmlns:xlink="http://www.w3.org/1999/xlink" viewBox="0 0 1511.51 1566.96"><defs><style>.c,.d{fill:#fff;}.e{fill:#d85e5e;}.f{fill:#d1d1d1;}.g{fill:#e9f4f1;}.h{clip-path:url(#b);}.i{fill:#a2a2a1;}.j{fill:none;}.d{stroke:#010101;stroke-linecap:square;stroke-miterlimit:3;}.k{fill:#a61f1e;}.l{fill:rgba(1,1,1,0);}.m{fill:#5e5e5e;}.n{fill:#b9b9b9;}</style><clipPath id="b"><rect class="j" x="103.92" y="140.3" width="1251" height="1251"/></clipPath></defs><path class="g" d="M1333.59,1207.84c-103.22,124.47-352.07,313.72-485.15,346.15-143.36,34.93-450.43-.7-569.69-106.73-72.5-64.46-138.36-301.93-181.91-404.8C71.74,983.18,5.55,870.97,.92,801.61c-9.35-140.07,54.11-438.97,124.81-545.18C189.83,160.15,361.89,4.26,454.68,.09c93.95-4.22,260.86,135.35,352.21,160.36,92.75,25.39,289.35-.86,379.02,38.82,85.33,37.76,260.93,149.03,303.66,257.03,38.52,97.36,19.07,341.82-3.35,451.68-17.83,87.39-102.59,239.51-152.63,299.85Z"/><g class="h"><g><rect class="l" x="103.92" y="140.3" width="1251" height="1251"/><g><path class="c" d="M554.25,1367.96l750.6-433.36-400.32-202.23L178.95,1151.28l375.3,216.68Z"/><path class="f" d="M854.52,790.15l-87.57-50.56,87.57,137.23v-86.67Z"/><path class="n" d="M1154.76,616.81l-87.57-50.56,87.57,137.23v-86.67Z"/><path class="d" d="M366.6,652.92l-100.08-57.78-87.57,151.68,87.57,50.56,100.08-144.45Z" vector-effect="non-scaling-stroke"/><path class="k" d="M366.6,652.92l-100.08-57.78-87.57,151.68,87.57,50.56,100.08-144.45Z"/><path class="k" d="M954.57,299.01l-87.57-50.56-87.57,151.67,175.14-101.12Z"/><path class="k" d="M654.33,472.35l-87.57-50.56-125.1,173.34,212.67-122.79Z"/><path class="e" d="M679.35,457.91l-112.59-36.11,87.57,50.56,25.02-14.45Z"/><path class="e" d="M466.68,912.93l152.98-88.32,84.71,138.88,150.12-86.67-87.57-137.23,150.12-86.67,87.57,137.23,150.12-86.67-87.57-137.23,150.12-86.67-100.08-274.46L366.6,638.47l100.08,274.46Z"/><path class="f" d="M266.55,797.37v404.47l200.16,115.56v-404.47l-200.16-115.56Z"/><path class="k" d="M629.34,804.59l-162.63-93.89v202.23l87.57,50.56,75.06-158.9Z"/><path class="k" d="M929.58,631.25l-162.63-93.89v202.23l87.57,50.56,75.06-158.9Z"/><path class="k" d="M1229.82,457.91l-162.63-93.89v202.23l87.57,50.56,75.06-158.9Z"/><path class="c" d="M554.28,1367.96v-216.68l750.6-433.36v216.68l-750.6,433.36Z"/><path class="c" d="M704.4,876.82v86.67l-150.12,86.67v-86.67l150.12-86.67Z"/><path class="c" d="M554.25,963.49l75.06-158.9,75.06,72.23-150.12,86.67Z"/><path class="c" d="M1154.73,616.81l75.06-158.9,75.06,72.23-150.12,86.67Z"/><path class="c" d="M854.49,790.15l75.06-158.9,75.06,72.23-150.12,86.67Z"/><path class="c" d="M1004.64,703.48v86.67l-150.12,86.67v-86.67l150.12-86.67Z"/><path class="c" d="M1304.88,530.13v86.67l-150.12,86.67v-86.67l150.12-86.67Z"/><path class="c" d="M554.28,1151.28v-101.12l745.02-430.14,5.58-3.22v101.12l-750.6,433.36Z"/><path class="m" d="M604.32,1144.06l25.02-14.45v57.78l-25.02,14.45v-57.78Z"/><path class="m" d="M641.85,1122.39l25.02-14.45v57.78l-25.02,14.45v-57.78Z"/><path class="m" d="M604.32,1042.94l25.02-14.45v57.78l-25.02,14.45v-57.78Z"/><path class="m" d="M641.85,1021.27l25.02-14.45v57.78l-25.02,14.45v-57.78Z"/><path class="i" d="M1298.63,627.64l-6.26,3.61v14.45l6.26-3.61v14.45l-6.26,3.61v14.45l6.26-3.61v14.45l-6.26,3.61v14.45l6.26-3.61v14.45l6.25-3.61v-93.9l-6.25,3.61v7.22Z"/><path class="i" d="M554.28,963.49l6.25-3.61v7.22l6.26-3.61v14.45l-6.26,3.61v14.45l6.26-3.61v14.45l-6.26,3.61v14.45l6.26-3.61v14.45l-6.26,3.61v7.22l-6.25,3.61v-86.67Z"/><path class="i" d="M560.54,1053.78l6.26-3.61v14.45l-6.26,3.61v14.45l6.26-3.61v14.45l-6.26,3.61v14.45l6.26-3.61v14.45l-6.26,3.61v7.22l-6.25,3.61v-86.67l6.25-3.61v7.22Z"/><path class="i" d="M704.4,876.82l-6.26,3.61v7.22l-6.25,3.61v14.45l6.25-3.61v14.45l-6.25,3.61v14.45l6.25-3.61v14.45l-6.25,3.61v14.45l6.25-3.61v7.22l6.26-3.61v-86.67Z"/><path class="f" d="M554.28,963.49l-87.57-50.56v404.47l87.57,50.56v-404.47Z"/><path class="f" d="M266.55,797.37l-87.57-50.56v404.47l87.57,50.56v-404.47Z"/><path class="f" d="M466.68,912.93l-100.08-274.46-100.08,158.9,200.16,115.56Z"/><path class="m" d="M629.34,934.6v57.78l-25.02,14.45v-57.78l25.02-14.45Z"/><path class="m" d="M641.85,927.38l25.02-14.45v57.78l-25.02,14.45v-57.78Z"/><path class="m" d="M929.58,761.26l-25.02,14.45v57.78l25.02-14.45v-57.78Z"/><path class="m" d="M942.09,754.04l25.02-14.45v57.78l-25.02,14.45v-57.78Z"/><path class="m" d="M904.56,869.6l25.02-14.45v57.78l-25.02,14.45v-57.78Z"/><path class="m" d="M942.09,847.93l25.02-14.45v57.78l-25.02,14.45v-57.78Z"/><path class="m" d="M904.56,970.72l25.02-14.45v57.78l-25.02,14.45v-57.78Z"/><path class="m" d="M942.09,949.05l25.02-14.45v57.78l-25.02,14.45v-57.78Z"/><path class="m" d="M1229.82,587.91v57.78l-25.02,14.45v-57.78l25.02-14.45Z"/><path class="m" d="M1242.33,580.69l25.02-14.45v57.78l-25.02,14.45v-57.78Z"/><path class="m" d="M1229.82,783.07v57.78l-25.02,14.45v-57.78l25.02-14.45Z"/><path class="m" d="M1242.33,775.85l25.02-14.45v57.78l-25.02,14.45v-57.78Z"/><path class="m" d="M1229.82,682.99v57.78l-25.02,14.45v-57.78l25.02-14.45Z"/><path class="m" d="M1242.33,675.77l25.02-14.45v57.78l-25.02,14.45v-57.78Z"/><path class="i" d="M1298.63,533.75v7.22c-4.21,3.71-6.3,4.92-6.26,3.61,.04-1.31,.04,3.51,0,14.45l6.26-3.61v14.45l-6.26,3.61v14.45l6.26-3.61v14.45l-6.26,3.61v14.45l6.26-3.61v7.22l6.25-3.61v-86.67l-6.25,3.61Z"/><path class="i" d="M1154.76,616.81l6.26-3.61v7.22l6.25-3.61v14.45l-6.25,3.61v14.45l6.25-3.61v14.45l-6.25,3.61v14.45l6.25-3.61v14.45l-6.25,3.61v7.22l-6.26,3.61v-86.67Z"/><path class="i" d="M854.52,876.82v-86.67l6.26-3.61v7.22l6.25-3.61v14.45l-6.25,3.61v14.45l6.25-3.61v14.45l-6.25,3.61v14.45l6.25-3.61v14.45l-6.25,3.61v7.22l-6.26,3.61Z"/><path class="i" d="M1004.64,703.48l-6.26,3.61v7.22l-6.26,3.61v14.45l6.26-3.61v14.45l-6.26,3.61v14.45l6.26-3.61v14.45l-6.26,3.61v14.45l6.26-3.61v7.22l6.26-3.61v-86.67Z"/></g></g></g></svg>