<?xml version="1.0" encoding="UTF-8"?><svg id="a" xmlns="http://www.w3.org/2000/svg" viewBox="0 0 1514.9033 1505.7676"><defs><style>.b{fill:#e9f4f1;}.c{fill:#f7b498;}.c,.d{stroke:#ee750b;stroke-miterlimit:10;stroke-width:30px;}.d{fill:#fff;}</style></defs><path class="b" d="M1471.5256,896.0294c-53.9503,152.437-222.2403,415.9118-335.9726,492.2575-122.5139,82.2405-423.0262,154.7199-571.5341,96.3347-90.2893-35.4968-234.0126-235.6733-310.3779-317.2029-44.0165-46.9931-144.8445-129.4822-173.1189-192.9906C23.425,846.18-20.1078,543.7402,9.6208,419.6595,36.5715,307.1731,144.2937,101.5055,229.9592,65.5859c86.7246-36.3637,291.5383,37.0638,385.9024,29.0247C711.6771,86.4479,887.1557-6.005,985.0142,.309c93.1218,6.0083,296.3189,49.8813,373.6808,136.5128,69.738,78.0941,135.8076,314.2632,152.6618,425.1119,13.4076,88.1806-13.6783,260.2005-39.8312,334.0957Z"/><rect class="d" x="302.8273" y="496.4434" width="940" height="140" transform="translate(-130.724 247.5151) rotate(-16.7979)"/><path class="c" d="M757.8272,360.4434h.0002c48.0166,0,86.9999,38.9834,86.9999,86.9999v188.0056c0,40.2868-32.7077,72.9945-72.9945,72.9945h-28.3407c-40.1048,0-72.6648-32.56-72.6648-72.6648v-188.3353c0-48.0166,38.9834-86.9999,86.9999-86.9999Z"/><circle class="d" cx="761.8273" cy="560.4434" r="35"/><line class="d" x1="757.8274" y1="360.4434" x2="757.8274" y2="192.4434"/><line class="d" x1="407.2998" y1="759.2236" x2="407.2998" y2="1002.4434"/><path class="c" d="M290.8273,1001.4434h235s0,140-118.9968,140c-112.2611,0-116.0032-140-116.0032-140Z"/><line class="d" x1="1165.5524" y1="521.4709" x2="1165.5524" y2="764.6907"/><path class="c" d="M1049.0799,763.6907h235s0,140-118.9968,140c-112.2611,0-116.0032-140-116.0032-140Z"/></svg>